<!--?xml version="1.0" standalone="no"?-->
              <svg id="sw-js-blob-svg" viewBox="0 0 100 100" xmlns="http://www.w3.org/2000/svg" version="1.1">
                    <defs> 
                        <linearGradient id="sw-gradient" x1="0" x2="1" y1="1" y2="0">
                            <stop id="stop1" stop-color="rgba(23, 255, 139, 1)" offset="0%"></stop>
                            <stop id="stop2" stop-color="rgba(247, 245, 245, 1)" offset="100%"></stop>
                        </linearGradient>
                    </defs>
                <path fill="url(#sw-gradient)" d="M27.2,-36.6C34.8,-31.9,40.3,-23.4,41.9,-14.6C43.5,-5.7,41.2,3.5,37.9,11.9C34.6,20.4,30.3,28.1,23.8,32.8C17.3,37.5,8.7,39.1,0.6,38.3C-7.5,37.5,-14.9,34.1,-22.6,29.8C-30.3,25.5,-38.2,20.3,-41.8,12.7C-45.4,5.2,-44.7,-4.5,-41.2,-12.8C-37.7,-21.1,-31.4,-27.8,-24.1,-32.6C-16.7,-37.5,-8.4,-40.4,0.7,-41.4C9.8,-42.4,19.6,-41.4,27.2,-36.6Z" width="100%" height="100%" transform="translate(50 50)" stroke-width="0" style="transition: all 0.3s ease 0s;" stroke="url(#sw-gradient)"></path>
              </svg>